<?xml version="1.0" encoding="UTF-8"?>
<svg id="Layer_1" data-name="Layer 1" xmlns="http://www.w3.org/2000/svg" viewBox="0 0 800 800">
  <defs>
    <style>
      .cls-1 {
        fill: none;
        stroke: #303030;
        stroke-linecap: round;
        stroke-linejoin: round;
        stroke-width: 80px;
      }
    </style>
  </defs>
  <path class="cls-1" d="M100,466.67v-133.33c0-18.41,14.92-33.33,33.33-33.33h88.31c7.57,0,14.91-2.58,20.82-7.3l103.38-82.7c21.83-17.46,54.16-1.92,54.16,26.03v327.96c0,27.95-32.33,43.49-54.16,26.03l-103.38-82.7c-5.91-4.73-13.25-7.3-20.82-7.3h-88.31c-18.41,0-33.33-14.92-33.33-33.33Z"/>
  <path class="cls-1" d="M527.67,502.08c23.78-28.33,37.45-63.77,38.87-100.73,1.42-36.96-9.5-73.34-31.03-103.42"/>
</svg>