<?xml version="1.0" encoding="UTF-8"?>
<svg id="Layer_1" data-name="Layer 1" xmlns="http://www.w3.org/2000/svg" viewBox="0 0 800 800">
  <defs>
    <style>
      .cls-1 {
        fill: none;
        stroke: #303030;
        stroke-linecap: round;
        stroke-linejoin: round;
        stroke-width: 80px;
      }

      .cls-2 {
        fill: #303030;
      }
    </style>
  </defs>
  <path class="cls-1" d="M100,466.67v-133.33c0-18.41,14.92-33.33,33.33-33.33h88.31c7.57,0,14.91-2.58,20.82-7.3l103.38-82.7c21.83-17.46,54.16-1.92,54.16,26.03v327.96c0,27.95-32.33,43.49-54.16,26.03l-103.38-82.7c-5.91-4.73-13.25-7.3-20.82-7.3h-88.31c-18.41,0-33.33-14.92-33.33-33.33Z"/>
  <path class="cls-2" d="M668.36,444.56h-113.39c-21.81,0-39.5-17.69-39.5-39.5s17.69-39.5,39.5-39.5h113.39c21.81,0,39.5,17.69,39.5,39.5s-17.69,39.5-39.5,39.5Z"/>
</svg>