<?xml version="1.0" encoding="UTF-8"?>
<svg id="Layer_1" data-name="Layer 1" xmlns="http://www.w3.org/2000/svg" viewBox="0 0 3119.01 336.11">
  <defs>
    <style>
      .cls-1 {
        stroke-width: 3px;
      }

      .cls-1, .cls-2, .cls-3 {
        fill: none;
        stroke: #303030;
      }

      .cls-2 {
        stroke-width: 2px;
      }
    </style>
  </defs>
  <path class="cls-3" d="M0,235.31c53.76-.2,75.27-43.59,129-43.77,54.3-.19,76.2,43.95,130.5,43.77,53.76-.19,75.25-43.59,129-43.77,54.3-.19,76.2,43.95,130.5,43.77,53.76-.19,75.25-43.59,129-43.77,54.3-.19,78.7,42.59,133,42.4,53.76-.18,75.25-43.58,129-43.77,54.3-.19,76.2,44,130.5,43.77,53.75-.18,75.25-43.58,129-43.77,54.3-.19,76.2,44,130.5,43.77,53.75-.18,75.25-43.58,129-43.77,54.3-.19,76.2,44,130.5,43.77"/>
  <path class="cls-3" d="M0,315.55c53.76-.19,75.25-43.59,129-43.77,54.3-.19,76.2,44,130.5,43.77,53.76-.19,75.25-43.59,129-43.77,54.3-.19,76.2,44,130.5,43.77,53.76-.19,75.25-43.59,129-43.77,54.3-.19,78.7,42.59,133,42.4,53.76-.18,75.25-43.58,129-43.77,54.3-.18,76.2,44,130.5,43.77,53.75-.18,75.25-43.58,129-43.77,54.3-.18,76.2,44,130.5,43.77,53.75-.18,75.25-43.58,129-43.77,54.3-.18,76.2,44,130.5,43.77"/>
  <path class="cls-1" d="M0,275.43c53.76-.19,75.25-43.59,129-43.77,54.3-.19,76.2,44,130.5,43.77,53.76-.19,75.25-43.59,129-43.77,54.3-.19,76.2,44,130.5,43.77,53.76-.19,75.25-43.59,129-43.77,54.3-.19,78.7,42.59,133,42.4,53.76-.18,75.25-43.58,129-43.77,54.3-.18,76.2,44,130.5,43.77,53.75-.18,75.25-43.58,129-43.77,54.3-.18,76.2,44,130.5,43.77,53.75-.18,75.25-43.58,129-43.77,54.3-.18,76.2,44,130.5,43.77"/>
  <path class="cls-2" d="M0,255.37c53.76-.19,75.25-43.59,129-43.77,54.3-.19,76.2,43.95,130.5,43.77,53.76-.19,75.25-43.59,129-43.77,54.3-.19,76.2,43.95,130.5,43.77,53.76-.19,75.25-43.59,129-43.77,54.3-.19,78.7,42.59,133,42.4,53.76-.18,75.25-43.58,129-43.77,54.3-.18,76.2,44,130.5,43.77,53.75-.18,75.25-43.58,129-43.77,54.3-.18,76.2,44,130.5,43.77,53.75-.18,75.25-43.58,129-43.77,54.3-.18,76.2,44,130.5,43.77"/>
  <path class="cls-3" d="M0,335.61c53.76-.19,75.25-43.59,129-43.77,54.3-.19,76.2,44,130.5,43.77,53.76-.19,75.25-43.59,129-43.77,54.3-.19,76.2,44,130.5,43.77,53.76-.19,75.25-43.59,129-43.77,54.3-.19,78.7,42.59,133,42.4,53.76-.18,75.25-43.58,129-43.77,54.3-.18,76.2,44,130.5,43.77,53.75-.18,75.25-43.58,129-43.77,54.3-.18,76.2,44,130.5,43.77,53.75-.18,75.25-43.58,129-43.77,54.3-.18,76.2,44,130.5,43.77"/>
  <path class="cls-2" d="M0,295.49c53.76-.19,75.25-43.59,129-43.77,54.3-.19,76.2,44,130.5,43.77,53.76-.19,75.25-43.59,129-43.77,54.3-.19,76.2,44,130.5,43.77,53.76-.19,75.25-43.59,129-43.77,54.3-.19,78.7,42.59,133,42.4,53.76-.18,75.25-43.58,129-43.77,54.3-.18,76.2,44,130.5,43.77,53.75-.18,75.25-43.58,129-43.77,54.3-.18,76.2,44,130.5,43.77,53.75-.18,75.25-43.58,129-43.77,54.3-.18,76.2,44,130.5,43.77"/>
  <path class="cls-3" d="M3119.01,235.31c-53.75-.19-75.25-43.59-129-43.77-54.3-.19-76.2,43.95-130.5,43.77-53.75-.19-75.25-43.59-129-43.77-54.3-.19-76.2,43.95-130.5,43.77-53.75-.19-75.25-43.59-129-43.77-54.3-.19-78.7,42.59-133,42.4-53.75-.18-75.25-43.58-129-43.77-54.3-.19-76.2,44-130.5,43.77-53.75-.18-75.25-43.58-129-43.77-54.3-.19-76.2,44-130.5,43.77-53.75-.18-75.25-43.58-129-43.77-54.3-.19-76.2,44-130.5,43.77"/>
  <path class="cls-3" d="M3119.01,215.25c-53.75-.19-75.25-43.59-129-43.77-54.3-.19-76.2,44-130.5,43.77-53.75-.19-75.25-43.59-129-43.77-54.3-.19-76.2,44-130.5,43.77-53.75-.19-75.25-43.59-129-43.77-54.3-.19-78.7,42.59-133,42.4-53.75-.19-75.25-43.59-129-43.77-54.3-.19-76.2,44-130.5,43.77-53.75-.19-75.25-43.59-129-43.77-54.3-.19-76.2,44-130.5,43.77-53.75-.19-75.25-43.59-129-43.77-54.3-.19-76.2,44-130.5,43.77-54.3.23-76.2-43.96-130.5-43.77-53.75.18-75.25,43.58-129,43.77-54.3.23-76.2-43.96-130.5-43.77-53.75.18-75.25,43.58-129,43.77-54.3.23-76.2-43.96-130.5-43.77-53.73.18-75.24,43.58-129,43.77-54.3.19-78.7-42.59-133-42.4-53.73.18-75.24,43.63-129,43.77-54.3.23-76.2-43.96-130.5-43.77-53.75.18-75.23,43.63-129,43.77-54.3.23-76.2-43.96-130.5-43.77C75.28,171.66,53.77,215.11,0,215.25"/>
  <path class="cls-3" d="M3119.01,45.64c-53.75-.19-75.25-43.59-129-43.77-54.3-.19-76.2,44-130.5,43.77-53.75-.19-75.25-43.59-129-43.77-54.3-.19-76.2,44-130.5,43.77-53.75-.19-75.25-43.59-129-43.77-54.3-.19-78.7,42.59-133,42.4-53.75-.19-75.25-43.59-129-43.77-54.3-.19-76.2,44-130.5,43.77-53.75-.19-75.25-43.59-129-43.77-54.3-.19-76.2,44-130.5,43.77-53.75-.19-75.25-43.59-129-43.77-54.3-.19-76.2,44-130.5,43.77-54.3.23-76.2-43.96-130.5-43.77-53.75.18-75.25,43.58-129,43.77-54.3.23-76.2-43.96-130.5-43.77-53.75.18-75.25,43.58-129,43.77-54.3.23-76.2-43.96-130.5-43.77-53.73.18-75.24,43.58-129,43.77-54.3.19-78.7-42.59-133-42.4-53.73.18-75.24,43.63-129,43.77-54.3.23-76.2-43.96-130.5-43.77-53.75.18-75.23,43.63-129,43.77-54.3.23-76.2-43.96-130.5-43.77C75.28,2.05,53.77,45.5,0,45.64"/>
  <path class="cls-3" d="M3119.01,315.55c-53.75-.19-75.25-43.59-129-43.77-54.3-.19-76.2,44-130.5,43.77-53.75-.19-75.25-43.59-129-43.77-54.3-.19-76.2,44-130.5,43.77-53.75-.19-75.25-43.59-129-43.77-54.3-.19-78.7,42.59-133,42.4-53.75-.18-75.25-43.58-129-43.77-54.3-.18-76.2,44-130.5,43.77-53.75-.18-75.25-43.58-129-43.77-54.3-.18-76.2,44-130.5,43.77-53.75-.18-75.25-43.58-129-43.77-54.3-.18-76.2,44-130.5,43.77"/>
  <path class="cls-1" d="M3119.01,275.43c-53.75-.19-75.25-43.59-129-43.77-54.3-.19-76.2,44-130.5,43.77-53.75-.19-75.25-43.59-129-43.77-54.3-.19-76.2,44-130.5,43.77-53.75-.19-75.25-43.59-129-43.77-54.3-.19-78.7,42.59-133,42.4-53.75-.18-75.25-43.58-129-43.77-54.3-.18-76.2,44-130.5,43.77-53.75-.18-75.25-43.58-129-43.77-54.3-.18-76.2,44-130.5,43.77-53.75-.18-75.25-43.58-129-43.77-54.3-.18-76.2,44-130.5,43.77"/>
  <path class="cls-2" d="M3119.01,255.37c-53.75-.19-75.25-43.59-129-43.77-54.3-.19-76.2,43.95-130.5,43.77-53.75-.19-75.25-43.59-129-43.77-54.3-.19-76.2,43.95-130.5,43.77-53.75-.19-75.25-43.59-129-43.77-54.3-.19-78.7,42.59-133,42.4-53.75-.18-75.25-43.58-129-43.77-54.3-.18-76.2,44-130.5,43.77-53.75-.18-75.25-43.58-129-43.77-54.3-.18-76.2,44-130.5,43.77-53.75-.18-75.25-43.58-129-43.77-54.3-.18-76.2,44-130.5,43.77"/>
  <path class="cls-3" d="M3119.01,335.61c-53.75-.19-75.25-43.59-129-43.77-54.3-.19-76.2,44-130.5,43.77-53.75-.19-75.25-43.59-129-43.77-54.3-.19-76.2,44-130.5,43.77-53.75-.19-75.25-43.59-129-43.77-54.3-.19-78.7,42.59-133,42.4-53.75-.18-75.25-43.58-129-43.77-54.3-.18-76.2,44-130.5,43.77-53.75-.18-75.25-43.58-129-43.77-54.3-.18-76.2,44-130.5,43.77-53.75-.18-75.25-43.58-129-43.77-54.3-.18-76.2,44-130.5,43.77"/>
  <path class="cls-2" d="M3119.01,295.49c-53.75-.19-75.25-43.59-129-43.77-54.3-.19-76.2,44-130.5,43.77-53.75-.19-75.25-43.59-129-43.77-54.3-.19-76.2,44-130.5,43.77-53.75-.19-75.25-43.59-129-43.77-54.3-.19-78.7,42.59-133,42.4-53.75-.18-75.25-43.58-129-43.77-54.3-.18-76.2,44-130.5,43.77-53.75-.18-75.25-43.58-129-43.77-54.3-.18-76.2,44-130.5,43.77-53.75-.18-75.25-43.58-129-43.77-54.3-.18-76.2,44-130.5,43.77"/>
</svg>