<?xml version="1.0" encoding="UTF-8"?>
<svg id="Layer_1" data-name="Layer 1" xmlns="http://www.w3.org/2000/svg" viewBox="0 0 3119 70.53">
  <defs>
    <style>
      .cls-1 {
        fill: none;
        stroke: #303030;
      }
    </style>
  </defs>
  <path class="cls-1" d="M3119,57.84c-53.75-.19-75.25-43.59-129-43.77-54.3-.19-76.2,44-130.5,43.77-53.75-.19-75.25-43.59-129-43.77-54.3-.19-76.2,44-130.5,43.77-53.75-.19-75.25-43.59-129-43.77-54.3-.19-78.7,42.59-133,42.4-53.75-.19-75.25-43.59-129-43.77-54.3-.19-76.2,44-130.5,43.77-53.75-.19-75.25-43.59-129-43.77-54.3-.19-76.2,44-130.5,43.77-53.75-.19-75.25-43.59-129-43.77-54.3-.19-76.2,44-130.5,43.77-54.3.23-76.2-43.96-130.5-43.77-53.75.18-75.25,43.58-129,43.77-54.3.23-76.2-43.96-130.5-43.77-53.75.18-75.25,43.58-129,43.77-54.3.23-76.2-43.96-130.5-43.77-53.73.18-75.24,43.58-129,43.77-54.3.19-78.7-42.59-133-42.4-53.73.18-75.24,43.63-129,43.77-54.3.23-76.2-43.96-130.5-43.77-53.75.18-75.23,43.63-129,43.77-54.3.23-76.2-43.96-130.5-43.77C75.27,14.25,53.76,57.7,0,57.84"/>
</svg>