<svg id="Layer_1" data-name="Layer 1" xmlns="http://www.w3.org/2000/svg" viewBox="0 0 3127.09 167"><defs><style>.cls-1,.cls-2,.cls-3{fill:none;stroke:#303030;}.cls-2{stroke-width:3px;}.cls-3{stroke-width:2px;}</style></defs><title>logoArtboard 1</title><path class="cls-1" d="M-126.77,22.43S-50.57,66.38,3.73,66.2C57.49,66,79,22.61,132.73,22.43c54.3-.19,76.2,43.95,130.5,43.77,53.76-.19,75.25-43.59,129-43.77,54.3-.19,76.2,43.95,130.5,43.77,53.76-.19,75.25-43.59,129-43.77,54.3-.19,78.7,42.59,133,42.4,53.76-.18,75.25-43.58,129-43.77,54.3-.19,76.2,44,130.5,43.77,53.75-.18,75.25-43.58,129-43.77,54.3-.19,76.2,44,130.5,43.77,53.75-.18,75.25-43.58,129-43.77,54.3-.19,76.2,44,130.5,43.77"/><path class="cls-1" d="M-126.77,2.37s76.2,44,130.5,43.77C57.49,46,79,2.55,132.73,2.37c54.3-.19,76.2,44,130.5,43.77C317,46,338.48,2.55,392.23,2.37c54.3-.19,76.2,44,130.5,43.77C576.49,46,598,2.55,651.73,2.37c54.3-.19,78.7,42.59,133,42.4C838.49,44.58,860,1.18,913.73,1c54.3-.19,76.2,44,130.5,43.77,53.75-.19,75.25-43.59,129-43.77,54.3-.19,76.2,44,130.5,43.77,53.75-.19,75.25-43.59,129-43.77,54.3-.19,76.2,44,130.5,43.77"/><path class="cls-1" d="M-126.77,102.67s76.2,44,130.5,43.77c53.76-.19,75.25-43.59,129-43.77,54.3-.19,76.2,44,130.5,43.77,53.76-.19,75.25-43.59,129-43.77,54.3-.19,76.2,44,130.5,43.77,53.76-.19,75.25-43.59,129-43.77,54.3-.19,78.7,42.59,133,42.4,53.76-.18,75.25-43.58,129-43.77,54.3-.18,76.2,44,130.5,43.77,53.75-.18,75.25-43.58,129-43.77,54.3-.18,76.2,44,130.5,43.77,53.75-.18,75.25-43.58,129-43.77,54.3-.18,76.2,44,130.5,43.77"/><path class="cls-2" d="M-126.77,62.55s76.2,44,130.5,43.77c53.76-.19,75.25-43.59,129-43.77,54.3-.19,76.2,44,130.5,43.77,53.76-.19,75.25-43.59,129-43.77,54.3-.19,76.2,44,130.5,43.77,53.76-.19,75.25-43.59,129-43.77,54.3-.19,78.7,42.59,133,42.4,53.76-.18,75.25-43.58,129-43.77,54.3-.18,76.2,44,130.5,43.77,53.75-.18,75.25-43.58,129-43.77,54.3-.18,76.2,44,130.5,43.77,53.75-.18,75.25-43.58,129-43.77,54.3-.18,76.2,44,130.5,43.77"/><path class="cls-3" d="M-126.77,42.49s76.2,43.95,130.5,43.77c53.76-.19,75.25-43.59,129-43.77,54.3-.19,76.2,43.95,130.5,43.77,53.76-.19,75.25-43.59,129-43.77,54.3-.19,76.2,43.95,130.5,43.77,53.76-.19,75.25-43.59,129-43.77,54.3-.19,78.7,42.59,133,42.4,53.76-.18,75.25-43.58,129-43.77,54.3-.18,76.2,44,130.5,43.77,53.75-.18,75.25-43.58,129-43.77,54.3-.18,76.2,44,130.5,43.77,53.75-.18,75.25-43.58,129-43.77,54.3-.18,76.2,44,130.5,43.77"/><path class="cls-1" d="M-126.77,122.73s76.2,44,130.5,43.77c53.76-.19,75.25-43.59,129-43.77,54.3-.19,76.2,44,130.5,43.77,53.76-.19,75.25-43.59,129-43.77,54.3-.19,76.2,44,130.5,43.77,53.76-.19,75.25-43.59,129-43.77,54.3-.19,78.7,42.59,133,42.4,53.76-.18,75.25-43.58,129-43.77,54.3-.18,76.2,44,130.5,43.77,53.75-.18,75.25-43.58,129-43.77,54.3-.18,76.2,44,130.5,43.77,53.75-.18,75.25-43.58,129-43.77,54.3-.18,76.2,44,130.5,43.77"/><path class="cls-3" d="M-126.77,82.61s76.2,44,130.5,43.77c53.76-.19,75.25-43.59,129-43.77,54.3-.19,76.2,44,130.5,43.77,53.76-.19,75.25-43.59,129-43.77,54.3-.19,76.2,44,130.5,43.77,53.76-.19,75.25-43.59,129-43.77,54.3-.19,78.7,42.59,133,42.4,53.76-.18,75.25-43.58,129-43.77,54.3-.18,76.2,44,130.5,43.77,53.75-.18,75.25-43.58,129-43.77,54.3-.18,76.2,44,130.5,43.77,53.75-.18,75.25-43.58,129-43.77,54.3-.18,76.2,44,130.5,43.77"/><path class="cls-1" d="M3253.23,22.43S3177,66.38,3122.73,66.2c-53.75-.19-75.25-43.59-129-43.77-54.3-.19-76.2,43.95-130.5,43.77-53.75-.19-75.25-43.59-129-43.77-54.3-.19-76.2,43.95-130.5,43.77-53.75-.19-75.25-43.59-129-43.77-54.3-.19-78.7,42.59-133,42.4-53.75-.18-75.25-43.58-129-43.77-54.3-.19-76.2,44-130.5,43.77-53.75-.18-75.25-43.58-129-43.77-54.3-.19-76.2,44-130.5,43.77-53.75-.18-75.25-43.58-129-43.77-54.3-.19-76.2,44-130.5,43.77"/><path class="cls-1" d="M3253.23,2.37s-76.2,44-130.5,43.77c-53.75-.19-75.25-43.59-129-43.77-54.3-.19-76.2,44-130.5,43.77-53.75-.19-75.25-43.59-129-43.77-54.3-.19-76.2,44-130.5,43.77-53.75-.19-75.25-43.59-129-43.77-54.3-.19-78.7,42.59-133,42.4-53.75-.19-75.25-43.59-129-43.77-54.3-.19-76.2,44-130.5,43.77-53.75-.19-75.25-43.59-129-43.77-54.3-.19-76.2,44-130.5,43.77-53.75-.19-75.25-43.59-129-43.77-54.3-.19-76.2,44-130.5,43.77"/><path class="cls-1" d="M3253.23,102.67s-76.2,44-130.5,43.77c-53.75-.19-75.25-43.59-129-43.77-54.3-.19-76.2,44-130.5,43.77-53.75-.19-75.25-43.59-129-43.77-54.3-.19-76.2,44-130.5,43.77-53.75-.19-75.25-43.59-129-43.77-54.3-.19-78.7,42.59-133,42.4-53.75-.18-75.25-43.58-129-43.77-54.3-.18-76.2,44-130.5,43.77-53.75-.18-75.25-43.58-129-43.77-54.3-.18-76.2,44-130.5,43.77-53.75-.18-75.25-43.58-129-43.77-54.3-.18-76.2,44-130.5,43.77"/><path class="cls-2" d="M3253.23,62.55s-76.2,44-130.5,43.77c-53.75-.19-75.25-43.59-129-43.77-54.3-.19-76.2,44-130.5,43.77-53.75-.19-75.25-43.59-129-43.77-54.3-.19-76.2,44-130.5,43.77-53.75-.19-75.25-43.59-129-43.77-54.3-.19-78.7,42.59-133,42.4-53.75-.18-75.25-43.58-129-43.77-54.3-.18-76.2,44-130.5,43.77-53.75-.18-75.25-43.58-129-43.77-54.3-.18-76.2,44-130.5,43.77-53.75-.18-75.25-43.58-129-43.77-54.3-.18-76.2,44-130.5,43.77"/><path class="cls-3" d="M3253.23,42.49s-76.2,43.95-130.5,43.77c-53.75-.19-75.25-43.59-129-43.77-54.3-.19-76.2,43.95-130.5,43.77-53.75-.19-75.25-43.59-129-43.77-54.3-.19-76.2,43.95-130.5,43.77-53.75-.19-75.25-43.59-129-43.77-54.3-.19-78.7,42.59-133,42.4-53.75-.18-75.25-43.58-129-43.77-54.3-.18-76.2,44-130.5,43.77-53.75-.18-75.25-43.58-129-43.77-54.3-.18-76.2,44-130.5,43.77-53.75-.18-75.25-43.58-129-43.77-54.3-.18-76.2,44-130.5,43.77"/><path class="cls-1" d="M3253.23,122.73s-76.2,44-130.5,43.77c-53.75-.19-75.25-43.59-129-43.77-54.3-.19-76.2,44-130.5,43.77-53.75-.19-75.25-43.59-129-43.77-54.3-.19-76.2,44-130.5,43.77-53.75-.19-75.25-43.59-129-43.77-54.3-.19-78.7,42.59-133,42.4-53.75-.18-75.25-43.58-129-43.77-54.3-.18-76.2,44-130.5,43.77-53.75-.18-75.25-43.58-129-43.77-54.3-.18-76.2,44-130.5,43.77-53.75-.18-75.25-43.58-129-43.77-54.3-.18-76.2,44-130.5,43.77"/><path class="cls-3" d="M3253.23,82.61s-76.2,44-130.5,43.77c-53.75-.19-75.25-43.59-129-43.77-54.3-.19-76.2,44-130.5,43.77-53.75-.19-75.25-43.59-129-43.77-54.3-.19-76.2,44-130.5,43.77-53.75-.19-75.25-43.59-129-43.77-54.3-.19-78.7,42.59-133,42.4-53.75-.18-75.25-43.58-129-43.77-54.3-.18-76.2,44-130.5,43.77-53.75-.18-75.25-43.58-129-43.77-54.3-.18-76.2,44-130.5,43.77-53.75-.18-75.25-43.58-129-43.77-54.3-.18-76.2,44-130.5,43.77"/></svg>